<?xml version="1.0" encoding="UTF-8" standalone="no"?>
<!-- Created with Inkscape (http://www.inkscape.org/) -->

<svg
   width="1500"
   height="1500"
   viewBox="0 0 396.87498 396.87501"
   version="1.1"
   id="svg5"
   sodipodi:docname="qswitch.svg"
   inkscape:version="1.1.2 (0a00cf5339, 2022-02-04)"
   xmlns:inkscape="http://www.inkscape.org/namespaces/inkscape"
   xmlns:sodipodi="http://sodipodi.sourceforge.net/DTD/sodipodi-0.dtd"
   xmlns="http://www.w3.org/2000/svg"
   xmlns:svg="http://www.w3.org/2000/svg">
  <sodipodi:namedview
     id="namedview7"
     pagecolor="#ffffff"
     bordercolor="#000000"
     borderopacity="1"
     inkscape:pageshadow="0"
     inkscape:pageopacity="0"
     inkscape:pagecheckerboard="false"
     inkscape:document-units="mm"
     showgrid="true"
     units="px"
     width="500px"
     inkscape:zoom="0.53921852"
     inkscape:cx="616.63312"
     inkscape:cy="331.03462"
     inkscape:window-width="1296"
     inkscape:window-height="704"
     inkscape:window-x="0"
     inkscape:window-y="0"
     inkscape:window-maximized="1"
     inkscape:current-layer="layer1"
     showguides="false">
    <inkscape:grid
       type="xygrid"
       id="grid9"
       spacingx="1.3229167"
       spacingy="1.3229167" />
  </sodipodi:namedview>
  <defs
     id="defs2">
    <g
       id="g7376">
      <symbol
         overflow="visible"
         id="symbol1091">
        <path
           style="stroke:none"
           d=""
           id="path6055" />
      </symbol>
      <symbol
         overflow="visible"
         id="symbol5935">
        <path
           style="stroke:none"
           d="m 5.90625,-0.625 c 0.140625,0.21875 0.53125,0.609375 0.640625,0.609375 0.09375,0 0.09375,-0.078125 0.09375,-0.21875 V -1.96875 c 0,-0.390625 0.03125,-0.4375 0.6875,-0.4375 v -0.3125 c -0.375,0 -0.921875,0.03125 -1.21875,0.03125 -0.390625,0 -1.25,0 -1.609375,-0.03125 v 0.3125 H 4.828125 C 5.71875,-2.40625 5.75,-2.296875 5.75,-1.9375 v 0.640625 c 0,1.125 -1.265625,1.203125 -1.546875,1.203125 -0.640625,0 -2.625,-0.34375 -2.625,-3.3125 0,-2.984375 1.96875,-3.3125 2.5625,-3.3125 1.078125,0 1.984375,0.890625 2.171875,2.359375 0.03125,0.140625 0.03125,0.171875 0.171875,0.171875 0.15625,0 0.15625,-0.03125 0.15625,-0.234375 V -6.78125 c 0,-0.171875 0,-0.25 -0.109375,-0.25 -0.046875,0 -0.078125,0 -0.15625,0.125 l -0.5,0.734375 C 5.546875,-6.484375 5.015625,-7.03125 4.03125,-7.03125 c -1.859375,0 -3.46875,1.578125 -3.46875,3.625 0,2.046875 1.59375,3.625 3.484375,3.625 0.734375,0 1.53125,-0.265625 1.859375,-0.84375 z m 0,0"
           id="path2735" />
      </symbol>
      <symbol
         overflow="visible"
         id="symbol2010">
        <path
           style="stroke:none"
           d="M 0.34375,-6.8125 V -6.5 h 0.25 c 0.765625,0 0.78125,0.109375 0.78125,0.46875 v 5.25 c 0,0.359375 -0.015625,0.46875 -0.78125,0.46875 h -0.25 V 0 H 4 C 5.671875,0 7.046875,-1.46875 7.046875,-3.34375 7.046875,-5.25 5.703125,-6.8125 4,-6.8125 Z m 2.375,6.5 C 2.25,-0.3125 2.234375,-0.375 2.234375,-0.703125 V -6.09375 C 2.234375,-6.4375 2.25,-6.5 2.71875,-6.5 h 1 c 0.625,0 1.3125,0.21875 1.8125,0.921875 0.4375,0.59375 0.515625,1.453125 0.515625,2.234375 0,1.09375 -0.1875,1.703125 -0.546875,2.1875 -0.203125,0.265625 -0.765625,0.84375 -1.765625,0.84375 z m 0,0"
           id="path7064" />
      </symbol>
      <symbol
         overflow="visible"
         id="symbol7116">
        <path
           style="stroke:none"
           d="m 3.96875,-6.9375 c -0.046875,-0.125 -0.078125,-0.203125 -0.234375,-0.203125 -0.15625,0 -0.1875,0.0625 -0.234375,0.203125 L 1.4375,-0.984375 C 1.25,-0.46875 0.859375,-0.3125 0.3125,-0.3125 V 0 c 0.234375,-0.015625 0.671875,-0.03125 1.015625,-0.03125 0.3125,0 0.828125,0.015625 1.15625,0.03125 v -0.3125 c -0.5,0 -0.75,-0.25 -0.75,-0.5 0,-0.03125 0.015625,-0.140625 0.015625,-0.15625 L 2.21875,-2.265625 H 4.671875 L 5.203125,-0.75 c 0.015625,0.046875 0.03125,0.109375 0.03125,0.140625 0,0.296875 -0.5625,0.296875 -0.828125,0.296875 V 0 c 0.359375,-0.03125 1.0625,-0.03125 1.4375,-0.03125 0.421875,0 0.890625,0.015625 1.296875,0.03125 V -0.3125 H 6.96875 C 6.375,-0.3125 6.234375,-0.375 6.125,-0.703125 Z m -0.53125,1.109375 1.125,3.25 H 2.328125 Z m 0,0"
           id="path1712" />
      </symbol>
      <symbol
         overflow="visible"
         id="symbol4022">
        <path
           style="stroke:none"
           d="M 6.109375,-6.03125 C 6.109375,-6.390625 6.125,-6.5 6.890625,-6.5 h 0.25 v -0.3125 c -0.359375,0.03125 -1.09375,0.03125 -1.46875,0.03125 -0.375,0 -1.125,0 -1.46875,-0.03125 V -6.5 H 4.4375 c 0.765625,0 0.78125,0.109375 0.78125,0.46875 v 2.328125 H 2.25 V -6.03125 C 2.25,-6.390625 2.265625,-6.5 3.03125,-6.5 h 0.234375 v -0.3125 c -0.34375,0.03125 -1.078125,0.03125 -1.46875,0.03125 -0.375,0 -1.125,0 -1.46875,-0.03125 V -6.5 H 0.5625 c 0.765625,0 0.796875,0.109375 0.796875,0.46875 v 5.25 c 0,0.359375 -0.03125,0.46875 -0.796875,0.46875 H 0.328125 V 0 c 0.34375,-0.03125 1.09375,-0.03125 1.46875,-0.03125 0.375,0 1.125,0 1.46875,0.03125 V -0.3125 H 3.03125 C 2.265625,-0.3125 2.25,-0.421875 2.25,-0.78125 v -2.609375 h 2.96875 v 2.609375 c 0,0.359375 -0.015625,0.46875 -0.78125,0.46875 H 4.203125 V 0 c 0.34375,-0.03125 1.078125,-0.03125 1.453125,-0.03125 0.390625,0 1.125,0 1.484375,0.03125 v -0.3125 h -0.25 c -0.765625,0 -0.78125,-0.109375 -0.78125,-0.46875 z m 0,0"
           id="path1941" />
      </symbol>
      <symbol
         overflow="visible"
         id="symbol7112">
        <path
           style="stroke:none"
           d="m 3.484375,-3.875 -1.28125,-0.296875 c -0.625,-0.15625 -1,-0.6875 -1,-1.265625 0,-0.703125 0.53125,-1.3125 1.3125,-1.3125 1.65625,0 1.875,1.640625 1.9375,2.078125 0.015625,0.0625 0.015625,0.125 0.125,0.125 0.125,0 0.125,-0.046875 0.125,-0.234375 v -2 c 0,-0.171875 0,-0.25 -0.109375,-0.25 -0.0625,0 -0.078125,0.015625 -0.140625,0.140625 l -0.359375,0.5625 C 3.796875,-6.625 3.390625,-7.03125 2.5,-7.03125 c -1.109375,0 -1.9375,0.875 -1.9375,1.9375 0,0.828125 0.53125,1.5625 1.296875,1.828125 0.109375,0.03125 0.625,0.15625 1.328125,0.328125 0.265625,0.0625 0.5625,0.140625 0.84375,0.5 0.203125,0.265625 0.3125,0.59375 0.3125,0.921875 0,0.703125 -0.5,1.421875 -1.34375,1.421875 -0.28125,0 -1.046875,-0.046875 -1.578125,-0.53125 C 0.84375,-1.171875 0.8125,-1.796875 0.8125,-2.15625 0.796875,-2.265625 0.71875,-2.265625 0.6875,-2.265625 c -0.125,0 -0.125,0.078125 -0.125,0.25 v 2 c 0,0.171875 0,0.234375 0.109375,0.234375 0.0625,0 0.078125,-0.015625 0.140625,-0.125 0,-0.015625 0.03125,-0.046875 0.359375,-0.578125 0.3125,0.34375 0.953125,0.703125 1.84375,0.703125 1.15625,0 1.953125,-0.96875 1.953125,-2.078125 0,-0.984375 -0.65625,-1.8125 -1.484375,-2.015625 z m 0,0"
           id="path1587" />
      </symbol>
    </g>
  </defs>
  <g
     inkscape:label="Camada 1"
     inkscape:groupmode="layer"
     id="layer1">
    <rect
       style="fill:#ffffff;stroke:#000000;stroke-width:0.88;stroke-miterlimit:4;stroke-dasharray:none"
       id="rect121"
       width="26.458336"
       height="26.458334"
       x="59.531246"
       y="6.614583" />
    <rect
       style="fill:#ffffff;stroke:#000000;stroke-width:0.88;stroke-miterlimit:4;stroke-dasharray:none"
       id="rect2350"
       width="26.458336"
       height="26.458334"
       x="59.53125"
       y="59.53125" />
    <path
       style="fill:none;stroke:#000000;stroke-width:0.66;stroke-miterlimit:4;stroke-dasharray:none"
       d="m 85.989585,19.84375 c 13.229166,0 7.211881,12.767479 7.211881,12.767479 0,0 -6.993365,12.719866 -21.74354,13.555091 -9.011327,0.510264 -15.895425,9.396181 -18.541258,13.364932"
       id="path5168"
       sodipodi:nodetypes="ccsc" />
    <path
       style="fill:none;stroke:#000000;stroke-width:0.66;stroke-miterlimit:4;stroke-dasharray:none"
       d="m 52.916669,72.760418 v 0"
       id="path5170" />
    <path
       style="fill:none;stroke:#000000;stroke-width:0.66;stroke-miterlimit:4;stroke-dasharray:none"
       d="m 59.531251,19.84375 c 0,0 -14.113251,-1.25497 -14.113251,5.359613 0,6.614583 0.884085,21.098723 -5.730494,21.098723 h -19.84375"
       id="path13791-6"
       sodipodi:nodetypes="cssc" />
    <path
       style="fill:none;stroke:#000000;stroke-width:0.66;stroke-miterlimit:4;stroke-dasharray:none"
       d="m 59.531251,72.760418 c -13.22917,0 -6.61459,-13.229168 -6.61459,-13.229168 0,0 3.145853,-4.443769 7.748623,-8.853717 2.350316,-2.251856 4.357163,-3.192985 5.946281,-3.668565 2.759744,-0.825918 4.580252,-0.460078 8.048637,-1.032806 6.037714,-0.996996 16.621047,-7.611579 17.943964,-12.903246"
       id="path19367"
       sodipodi:nodetypes="ccsssc" />
    <path
       style="fill:none;stroke:#000000;stroke-width:0.66;stroke-miterlimit:4;stroke-dasharray:none"
       d="m 85.989585,72.760418 c 0,0 14.113255,1.25497 14.113255,-5.359612 0,-6.614583 -0.884089,-21.098723 5.73049,-21.098723 h 19.84375"
       id="path22600"
       sodipodi:nodetypes="cssc" />
    <rect
       style="fill:#ffffff;stroke:#000000;stroke-width:0.88;stroke-miterlimit:4;stroke-dasharray:none"
       id="rect23272"
       width="26.458336"
       height="26.458334"
       x="59.531254"
       y="-185.20833"
       transform="scale(1,-1)" />
    <rect
       style="fill:#ffffff;stroke:#000000;stroke-width:0.88;stroke-miterlimit:4;stroke-dasharray:none"
       id="rect23274"
       width="26.458336"
       height="26.458334"
       x="59.531258"
       y="-132.29167"
       transform="scale(1,-1)" />
    <path
       style="fill:none;stroke:#0000ef;stroke-width:0.66;stroke-miterlimit:4;stroke-dasharray:none;stroke-opacity:1"
       d="m 85.989592,171.97918 c 13.229166,0 7.211881,-12.76748 7.211881,-12.76748 0,0 -6.993365,-12.71987 -21.74354,-13.55509 -9.011327,-0.51027 -15.895425,-9.39618 -18.541258,-13.36493"
       id="path23276"
       sodipodi:nodetypes="ccsc" />
    <path
       style="fill:none;stroke:#000000;stroke-width:0.66;stroke-miterlimit:4;stroke-dasharray:none"
       d="m 52.916676,119.06251 v 0"
       id="path23278" />
    <path
       style="fill:none;stroke:#0000fc;stroke-width:0.66;stroke-miterlimit:4;stroke-dasharray:none;stroke-opacity:1"
       d="m 59.531258,171.97918 c 0,0 -14.113251,1.25497 -14.113251,-5.35962 0,-6.61458 0.884085,-21.09872 -5.730494,-21.09872 h -19.84375"
       id="path23280"
       sodipodi:nodetypes="cssc" />
    <path
       style="fill:none;stroke:#0000fc;stroke-width:0.66;stroke-miterlimit:4;stroke-dasharray:none;stroke-opacity:1"
       d="m 59.531258,119.06251 c -13.22917,0 -6.61459,13.22917 -6.61459,13.22917 0,0 3.145853,4.44377 7.748623,8.85371 2.350316,2.25186 4.357163,3.19299 5.946281,3.66857 2.759744,0.82592 4.580252,0.46008 8.048637,1.03281 6.037714,0.99699 16.621047,7.61157 17.943964,12.90324"
       id="path23282"
       sodipodi:nodetypes="ccsssc" />
    <path
       style="fill:none;stroke:#0000ff;stroke-width:0.66;stroke-miterlimit:4;stroke-dasharray:none;stroke-opacity:1"
       d="m 85.989592,119.06251 c 0,0 14.113258,-1.25497 14.113258,5.35961 0,6.61458 -0.884092,21.09872 5.73049,21.09872 h 19.84375"
       id="path23284"
       sodipodi:nodetypes="cssc" />
  </g>
</svg>
