<?xml version="1.0" encoding="UTF-8" standalone="no"?>
<!-- Created with Inkscape (http://www.inkscape.org/) -->

<svg
   width="1500"
   height="1500"
   viewBox="0 0 396.87498 396.87501"
   version="1.1"
   id="svg5"
   sodipodi:docname="qswitch.svg"
   inkscape:version="1.3.2 (091e20e, 2023-11-25, custom)"
   xmlns:inkscape="http://www.inkscape.org/namespaces/inkscape"
   xmlns:sodipodi="http://sodipodi.sourceforge.net/DTD/sodipodi-0.dtd"
   xmlns="http://www.w3.org/2000/svg"
   xmlns:svg="http://www.w3.org/2000/svg">
  <sodipodi:namedview
     id="namedview7"
     pagecolor="#ffffff"
     bordercolor="#000000"
     borderopacity="1"
     inkscape:pageshadow="0"
     inkscape:pageopacity="0"
     inkscape:pagecheckerboard="false"
     inkscape:document-units="mm"
     showgrid="true"
     units="px"
     width="500px"
     inkscape:zoom="0.76257014"
     inkscape:cx="524.54191"
     inkscape:cy="329.80573"
     inkscape:window-width="1920"
     inkscape:window-height="1017"
     inkscape:window-x="-8"
     inkscape:window-y="-8"
     inkscape:window-maximized="1"
     inkscape:current-layer="layer1"
     showguides="false"
     inkscape:showpageshadow="2"
     inkscape:deskcolor="#d1d1d1">
    <inkscape:grid
       type="xygrid"
       id="grid9"
       spacingx="1.3229167"
       spacingy="1.3229167"
       originx="0"
       originy="0"
       units="px"
       visible="true" />
  </sodipodi:namedview>
  <defs
     id="defs2">
    <inkscape:path-effect
       effect="spiro"
       id="path-effect16"
       is_visible="true"
       lpeversion="1" />
    <g
       id="g7376">
      <symbol
         overflow="visible"
         id="symbol1091">
        <path
           style="stroke:none"
           d=""
           id="path6055" />
      </symbol>
      <symbol
         overflow="visible"
         id="symbol5935">
        <path
           style="stroke:none"
           d="m 5.90625,-0.625 c 0.140625,0.21875 0.53125,0.609375 0.640625,0.609375 0.09375,0 0.09375,-0.078125 0.09375,-0.21875 V -1.96875 c 0,-0.390625 0.03125,-0.4375 0.6875,-0.4375 v -0.3125 c -0.375,0 -0.921875,0.03125 -1.21875,0.03125 -0.390625,0 -1.25,0 -1.609375,-0.03125 v 0.3125 H 4.828125 C 5.71875,-2.40625 5.75,-2.296875 5.75,-1.9375 v 0.640625 c 0,1.125 -1.265625,1.203125 -1.546875,1.203125 -0.640625,0 -2.625,-0.34375 -2.625,-3.3125 0,-2.984375 1.96875,-3.3125 2.5625,-3.3125 1.078125,0 1.984375,0.890625 2.171875,2.359375 0.03125,0.140625 0.03125,0.171875 0.171875,0.171875 0.15625,0 0.15625,-0.03125 0.15625,-0.234375 V -6.78125 c 0,-0.171875 0,-0.25 -0.109375,-0.25 -0.046875,0 -0.078125,0 -0.15625,0.125 l -0.5,0.734375 C 5.546875,-6.484375 5.015625,-7.03125 4.03125,-7.03125 c -1.859375,0 -3.46875,1.578125 -3.46875,3.625 0,2.046875 1.59375,3.625 3.484375,3.625 0.734375,0 1.53125,-0.265625 1.859375,-0.84375 z m 0,0"
           id="path2735" />
      </symbol>
      <symbol
         overflow="visible"
         id="symbol2010">
        <path
           style="stroke:none"
           d="M 0.34375,-6.8125 V -6.5 h 0.25 c 0.765625,0 0.78125,0.109375 0.78125,0.46875 v 5.25 c 0,0.359375 -0.015625,0.46875 -0.78125,0.46875 h -0.25 V 0 H 4 C 5.671875,0 7.046875,-1.46875 7.046875,-3.34375 7.046875,-5.25 5.703125,-6.8125 4,-6.8125 Z m 2.375,6.5 C 2.25,-0.3125 2.234375,-0.375 2.234375,-0.703125 V -6.09375 C 2.234375,-6.4375 2.25,-6.5 2.71875,-6.5 h 1 c 0.625,0 1.3125,0.21875 1.8125,0.921875 0.4375,0.59375 0.515625,1.453125 0.515625,2.234375 0,1.09375 -0.1875,1.703125 -0.546875,2.1875 -0.203125,0.265625 -0.765625,0.84375 -1.765625,0.84375 z m 0,0"
           id="path7064" />
      </symbol>
      <symbol
         overflow="visible"
         id="symbol7116">
        <path
           style="stroke:none"
           d="m 3.96875,-6.9375 c -0.046875,-0.125 -0.078125,-0.203125 -0.234375,-0.203125 -0.15625,0 -0.1875,0.0625 -0.234375,0.203125 L 1.4375,-0.984375 C 1.25,-0.46875 0.859375,-0.3125 0.3125,-0.3125 V 0 c 0.234375,-0.015625 0.671875,-0.03125 1.015625,-0.03125 0.3125,0 0.828125,0.015625 1.15625,0.03125 v -0.3125 c -0.5,0 -0.75,-0.25 -0.75,-0.5 0,-0.03125 0.015625,-0.140625 0.015625,-0.15625 L 2.21875,-2.265625 H 4.671875 L 5.203125,-0.75 c 0.015625,0.046875 0.03125,0.109375 0.03125,0.140625 0,0.296875 -0.5625,0.296875 -0.828125,0.296875 V 0 c 0.359375,-0.03125 1.0625,-0.03125 1.4375,-0.03125 0.421875,0 0.890625,0.015625 1.296875,0.03125 V -0.3125 H 6.96875 C 6.375,-0.3125 6.234375,-0.375 6.125,-0.703125 Z m -0.53125,1.109375 1.125,3.25 H 2.328125 Z m 0,0"
           id="path1712" />
      </symbol>
      <symbol
         overflow="visible"
         id="symbol4022">
        <path
           style="stroke:none"
           d="M 6.109375,-6.03125 C 6.109375,-6.390625 6.125,-6.5 6.890625,-6.5 h 0.25 v -0.3125 c -0.359375,0.03125 -1.09375,0.03125 -1.46875,0.03125 -0.375,0 -1.125,0 -1.46875,-0.03125 V -6.5 H 4.4375 c 0.765625,0 0.78125,0.109375 0.78125,0.46875 v 2.328125 H 2.25 V -6.03125 C 2.25,-6.390625 2.265625,-6.5 3.03125,-6.5 h 0.234375 v -0.3125 c -0.34375,0.03125 -1.078125,0.03125 -1.46875,0.03125 -0.375,0 -1.125,0 -1.46875,-0.03125 V -6.5 H 0.5625 c 0.765625,0 0.796875,0.109375 0.796875,0.46875 v 5.25 c 0,0.359375 -0.03125,0.46875 -0.796875,0.46875 H 0.328125 V 0 c 0.34375,-0.03125 1.09375,-0.03125 1.46875,-0.03125 0.375,0 1.125,0 1.46875,0.03125 V -0.3125 H 3.03125 C 2.265625,-0.3125 2.25,-0.421875 2.25,-0.78125 v -2.609375 h 2.96875 v 2.609375 c 0,0.359375 -0.015625,0.46875 -0.78125,0.46875 H 4.203125 V 0 c 0.34375,-0.03125 1.078125,-0.03125 1.453125,-0.03125 0.390625,0 1.125,0 1.484375,0.03125 v -0.3125 h -0.25 c -0.765625,0 -0.78125,-0.109375 -0.78125,-0.46875 z m 0,0"
           id="path1941" />
      </symbol>
      <symbol
         overflow="visible"
         id="symbol7112">
        <path
           style="stroke:none"
           d="m 3.484375,-3.875 -1.28125,-0.296875 c -0.625,-0.15625 -1,-0.6875 -1,-1.265625 0,-0.703125 0.53125,-1.3125 1.3125,-1.3125 1.65625,0 1.875,1.640625 1.9375,2.078125 0.015625,0.0625 0.015625,0.125 0.125,0.125 0.125,0 0.125,-0.046875 0.125,-0.234375 v -2 c 0,-0.171875 0,-0.25 -0.109375,-0.25 -0.0625,0 -0.078125,0.015625 -0.140625,0.140625 l -0.359375,0.5625 C 3.796875,-6.625 3.390625,-7.03125 2.5,-7.03125 c -1.109375,0 -1.9375,0.875 -1.9375,1.9375 0,0.828125 0.53125,1.5625 1.296875,1.828125 0.109375,0.03125 0.625,0.15625 1.328125,0.328125 0.265625,0.0625 0.5625,0.140625 0.84375,0.5 0.203125,0.265625 0.3125,0.59375 0.3125,0.921875 0,0.703125 -0.5,1.421875 -1.34375,1.421875 -0.28125,0 -1.046875,-0.046875 -1.578125,-0.53125 C 0.84375,-1.171875 0.8125,-1.796875 0.8125,-2.15625 0.796875,-2.265625 0.71875,-2.265625 0.6875,-2.265625 c -0.125,0 -0.125,0.078125 -0.125,0.25 v 2 c 0,0.171875 0,0.234375 0.109375,0.234375 0.0625,0 0.078125,-0.015625 0.140625,-0.125 0,-0.015625 0.03125,-0.046875 0.359375,-0.578125 0.3125,0.34375 0.953125,0.703125 1.84375,0.703125 1.15625,0 1.953125,-0.96875 1.953125,-2.078125 0,-0.984375 -0.65625,-1.8125 -1.484375,-2.015625 z m 0,0"
           id="path1587" />
      </symbol>
    </g>
  </defs>
  <g
     inkscape:label="Camada 1"
     inkscape:groupmode="layer"
     id="layer1">
    <rect
       style="fill:#ffffff;stroke:#000000;stroke-width:0.88;stroke-miterlimit:4;stroke-dasharray:none"
       id="rect121"
       width="26.458336"
       height="26.458334"
       x="60.021927"
       y="13.42967" />
    <rect
       style="fill:#ffffff;stroke:#000000;stroke-width:0.88;stroke-miterlimit:4;stroke-dasharray:none"
       id="rect2350"
       width="26.458336"
       height="26.458334"
       x="60.021931"
       y="66.346336" />
    <path
       style="fill:none;stroke:#000000;stroke-width:0.66;stroke-miterlimit:4;stroke-dasharray:none"
       d="m 86.480264,26.658836 c 13.229166,0 7.211881,12.767479 7.211881,12.767479 0,0 -6.993365,12.719866 -21.74354,13.555091 -9.011327,0.510264 -15.895425,9.396181 -18.541258,13.364932"
       id="path5168"
       sodipodi:nodetypes="ccsc" />
    <path
       style="fill:none;stroke:#000000;stroke-width:0.66;stroke-miterlimit:4;stroke-dasharray:none"
       d="m 53.407348,79.575504 v 0"
       id="path5170" />
    <path
       style="fill:none;stroke:#000000;stroke-width:0.66;stroke-miterlimit:4;stroke-dasharray:none"
       d="m 60.02193,26.658836 c 0,0 -3.017345,-0.324585 -6.28425,0.38357 -3.024452,0.655602 -5.752336,1.880306 -9.301039,4.730703 -5.141442,4.129721 -11.743465,21.344064 -16.770776,21.344064 l -7.33143,-1e-6"
       id="path13791-6"
       sodipodi:nodetypes="csssc" />
    <path
       style="fill:none;stroke:#000000;stroke-width:0.66;stroke-miterlimit:4;stroke-dasharray:none"
       d="m 60.02193,79.575504 c -13.22917,0 -6.61459,-13.229168 -6.61459,-13.229168 0,0 3.145853,-4.443769 7.748623,-8.853717 2.350316,-2.251856 4.357163,-3.192985 5.946281,-3.668565 2.759744,-0.825918 4.580252,-0.460078 8.048637,-1.032806 6.037714,-0.996996 16.621047,-7.611579 17.943964,-12.903246"
       id="path19367"
       sodipodi:nodetypes="ccsssc" />
    <g
       id="g22"
       transform="matrix(0,-0.51451687,-0.48826617,0,33.3677,59.841102)" />
    <g
       id="g31"
       transform="matrix(0.94067357,-0.34237718,0.34198658,0.93960042,24.021091,11.713661)">
      <g
         id="g24"
         transform="matrix(0,-0.51451687,-0.48826617,0,25.157103,33.249146)">
        <path
           style="fill:#000000;fill-opacity:0;stroke:#000000;stroke-width:1;stroke-dasharray:none;stroke-opacity:1"
           d="m 13.618282,19.776869 c 3.382886,-6.67903 3.382886,-6.67903 3.382886,-6.67903"
           id="path23" />
        <path
           style="fill:#000000;fill-opacity:0;stroke:#000000;stroke-width:1;stroke-dasharray:none;stroke-opacity:1"
           d="m 20.037091,19.776951 c -3.382886,-6.67903 -3.382886,-6.67903 -3.382886,-6.67903"
           id="path24" />
      </g>
    </g>
    <g
       id="g26"
       transform="matrix(0,-0.51451687,-0.48826617,0,31.922874,33.335887)" />
    <g
       id="g28"
       transform="matrix(-0.43758843,-0.27063625,0.25682836,-0.41526262,96.738207,50.815712)">
      <path
         style="fill:#000000;fill-opacity:0;stroke:#000000;stroke-width:1;stroke-dasharray:none;stroke-opacity:1"
         d="m 13.618282,19.776869 c 3.382886,-6.67903 3.382886,-6.67903 3.382886,-6.67903"
         id="path27" />
      <path
         style="fill:#000000;fill-opacity:0;stroke:#000000;stroke-width:1;stroke-dasharray:none;stroke-opacity:1"
         d="m 20.037091,19.776951 c -3.382886,-6.67903 -3.382886,-6.67903 -3.382886,-6.67903"
         id="path28" />
    </g>
    <g
       id="g30"
       transform="matrix(0,-0.51451687,-0.48826617,0,52.003335,32.294999)" />
    <g
       id="g33"
       transform="translate(-11.159342,-17.353857)">
      <g
         id="g32"
         transform="matrix(0,-0.51451687,-0.48826617,0,25.157103,33.249146)">
        <path
           style="fill:#000000;fill-opacity:0;stroke:#000000;stroke-width:1;stroke-dasharray:none;stroke-opacity:1"
           d="m 13.618282,19.776869 c 3.382886,-6.67903 3.382886,-6.67903 3.382886,-6.67903"
           id="path31" />
        <path
           style="fill:#000000;fill-opacity:0;stroke:#000000;stroke-width:1;stroke-dasharray:none;stroke-opacity:1"
           d="m 20.037091,19.776951 c -3.382886,-6.67903 -3.382886,-6.67903 -3.382886,-6.67903"
           id="path32" />
      </g>
    </g>
    <g
       id="g35"
       transform="rotate(48.201688,-2.6327501,95.941163)">
      <g
         id="g34"
         transform="matrix(0.48348771,-0.17597513,-0.16699686,-0.45882012,7.1298562,44.638858)">
        <path
           style="fill:#000000;fill-opacity:0;stroke:#000000;stroke-width:1;stroke-dasharray:none;stroke-opacity:1"
           d="m 13.618282,19.776869 c 3.382886,-6.67903 3.382886,-6.67903 3.382886,-6.67903"
           id="path33" />
        <path
           style="fill:#000000;fill-opacity:0;stroke:#000000;stroke-width:1;stroke-dasharray:none;stroke-opacity:1"
           d="m 20.037091,19.776951 c -3.382886,-6.67903 -3.382886,-6.67903 -3.382886,-6.67903"
           id="path34" />
      </g>
    </g>
    <g
       id="g41"
       transform="translate(22.899533,-0.52044393)" />
    <path
       style="fill:none;stroke:#000000;stroke-width:0.66;stroke-miterlimit:4;stroke-dasharray:none"
       d="m 86.820842,79.625564 c 0,0 3.01735,0.32459 6.28425,-0.38357 3.02446,-0.6556 5.75234,-1.8803 9.301038,-4.7307 5.14145,-4.12972 11.74347,-21.34406 16.77078,-21.34406 h 7.33142"
       id="path35"
       sodipodi:nodetypes="csssc" />
    <g
       id="g37"
       transform="matrix(0,0.51451687,-0.48826617,0,129.52672,42.62671)" />
    <g
       id="g40"
       transform="matrix(0.95721316,-0.29297076,0.29263652,0.95612114,75.220112,58.111566)">
      <g
         id="g39"
         transform="matrix(-0.02350813,-0.51397832,-0.4877551,0.02235973,23.823433,33.493436)">
        <path
           style="fill:#000000;fill-opacity:0;stroke:#000000;stroke-width:1;stroke-dasharray:none;stroke-opacity:1"
           d="m 13.618282,19.776869 c 3.382886,-6.67903 3.382886,-6.67903 3.382886,-6.67903"
           id="path38" />
        <path
           style="fill:#000000;fill-opacity:0;stroke:#000000;stroke-width:1;stroke-dasharray:none;stroke-opacity:1"
           d="m 20.037091,19.776951 c -3.382886,-6.67903 -3.382886,-6.67903 -3.382886,-6.67903"
           id="path39" />
      </g>
    </g>
    <g
       id="g67"
       transform="matrix(0,0.51451687,-0.48826617,0,253.59387,24.810442)" />
    <g
       id="g56"
       transform="matrix(1,0,0,-1,96.66381,150.01364)" />
    <g
       id="g74"
       transform="translate(2.8773242,-42.273521)">
      <g
         id="g73"
         transform="translate(71.14849,-21.835226)" />
      <g
         id="g77"
         transform="translate(-42.198415,-8.8322263)">
        <g
           id="g70"
           transform="matrix(0.95721316,-0.29297077,0.29263652,0.95612114,297.61904,86.857154)">
          <g
             id="g69"
             transform="matrix(-0.02350813,-0.51397832,-0.4877551,0.02235973,-30.739997,13.529267)">
            <g
               id="g71"
               transform="matrix(-0.77407628,0.66636825,0.60147811,0.77407628,64.017556,-24.045904)">
              <path
                 style="fill:none;stroke:#0000ff;stroke-width:0.66;stroke-miterlimit:4;stroke-dasharray:none;stroke-opacity:1"
                 d="m 64.512556,40.536723 c 0,0 -3.01735,-0.32459 -6.28425,0.38357 -3.02446,0.6556 -5.75234,1.8803 -9.30104,4.7307 -5.14145,4.12972 -11.74347,21.34406 -16.77078,21.34406 h -7.331419"
                 id="path65"
                 sodipodi:nodetypes="csssc"
                 transform="matrix(0.65329439,1.9269098,1.8306872,-0.68763213,-96.170727,-58.388703)" />
              <path
                 style="fill:#000000;fill-opacity:0;stroke:#0000ff;stroke-width:1;stroke-dasharray:none;stroke-opacity:1"
                 d="m 13.618282,19.776869 c 3.382886,-6.67903 3.382886,-6.67903 3.382886,-6.67903"
                 id="path68" />
              <path
                 style="fill:#000000;fill-opacity:0;stroke:#0000ff;stroke-width:1;stroke-dasharray:none;stroke-opacity:1"
                 d="m 20.037091,19.776951 c -3.382886,-6.67903 -3.382886,-6.67903 -3.382886,-6.67903"
                 id="path69" />
            </g>
          </g>
        </g>
        <g
           id="g76"
           transform="translate(71.14849,-21.835225)">
          <g
             id="g63"
             transform="translate(-23.959972,7.0060111)">
            <rect
               style="fill:#ffffff;stroke:#000000;stroke-width:0.88;stroke-miterlimit:4;stroke-dasharray:none"
               id="rect42"
               width="26.458336"
               height="26.458334"
               x="177.35977"
               y="-158.31844"
               transform="scale(1,-1)" />
            <rect
               style="fill:#ffffff;stroke:#000000;stroke-width:0.88;stroke-miterlimit:4;stroke-dasharray:none"
               id="rect43"
               width="26.458336"
               height="26.458334"
               x="177.35977"
               y="-105.40179"
               transform="scale(1,-1)" />
            <path
               style="fill:none;stroke:#0000ff;stroke-width:0.66;stroke-miterlimit:4;stroke-dasharray:none;stroke-opacity:1"
               d="m 203.81812,145.08928 c 13.22916,0 7.21188,-12.76748 7.21188,-12.76748 0,0 -6.99337,-12.71987 -21.74354,-13.55509 -9.01133,-0.51027 -15.89543,-9.39618 -18.54126,-13.36493"
               id="path43"
               sodipodi:nodetypes="ccsc" />
            <path
               style="fill:none;stroke:#000000;stroke-width:0.66;stroke-miterlimit:4;stroke-dasharray:none"
               d="m 170.7452,92.172612 v 0"
               id="path44" />
            <path
               style="fill:none;stroke:#0000ff;stroke-width:0.66;stroke-miterlimit:4;stroke-dasharray:none;stroke-opacity:1"
               d="m 177.35978,145.08928 c 0,0 -3.01734,0.32458 -6.28425,-0.38357 -3.02445,-0.6556 -5.75234,-1.8803 -9.30104,-4.7307 -1.85172,-1.48734 -3.89289,-4.67192 -5.98172,-8.13826 -3.71097,-6.15824 -7.57235,-13.20581 -10.78905,-13.20581 h -7.33143"
               id="path45"
               sodipodi:nodetypes="cssssc" />
            <path
               style="fill:none;stroke:#0000ff;stroke-width:0.66;stroke-miterlimit:4;stroke-dasharray:none;stroke-opacity:1"
               d="m 177.35978,92.172612 c -13.22917,0 -6.61459,13.229168 -6.61459,13.229168 0,0 3.14585,4.44377 7.74862,8.85372 2.35032,2.25185 4.35717,3.19298 5.94629,3.66856 2.75974,0.82592 4.58025,0.46008 8.04863,1.03281 6.03772,0.99699 16.62105,7.61158 17.94397,12.90324"
               id="path46"
               sodipodi:nodetypes="ccsssc" />
            <g
               id="g48"
               transform="matrix(0,0.51451687,-0.48826617,0,150.70555,109.99872)" />
            <g
               id="g51"
               transform="matrix(0.94067357,0.34237718,0.34198658,-0.93960042,141.35894,160.03445)">
              <g
                 id="g50"
                 transform="matrix(0,-0.51451687,-0.48826617,0,25.157103,33.249146)">
                <path
                   style="fill:#000000;fill-opacity:0;stroke:#0000ff;stroke-width:1;stroke-dasharray:none;stroke-opacity:1"
                   d="m 13.618282,19.776869 c 3.382886,-6.67903 3.382886,-6.67903 3.382886,-6.67903"
                   id="path49" />
                <path
                   style="fill:#000000;fill-opacity:0;stroke:#0000fb;stroke-width:1;stroke-dasharray:none;stroke-opacity:1"
                   d="m 20.037091,19.776951 c -3.382886,-6.67903 -3.382886,-6.67903 -3.382886,-6.67903"
                   id="path50" />
              </g>
            </g>
            <g
               id="g52"
               transform="matrix(-0.43758843,0.27063625,0.25682836,0.41526262,214.07606,120.9324)">
              <path
                 style="fill:#000000;fill-opacity:0;stroke:#0000ff;stroke-width:1;stroke-dasharray:none;stroke-opacity:1"
                 d="m 13.618282,19.776869 c 3.382886,-6.67903 3.382886,-6.67903 3.382886,-6.67903"
                 id="path51" />
              <path
                 style="fill:#000000;fill-opacity:0;stroke:#0000fe;stroke-width:1;stroke-dasharray:none;stroke-opacity:1"
                 d="m 20.037091,19.776951 c -3.382886,-6.67903 -3.382886,-6.67903 -3.382886,-6.67903"
                 id="path52" />
            </g>
            <g
               id="g55"
               transform="matrix(0.66651051,-0.74549564,-0.74549564,-0.66651051,187.98357,137.79004)">
              <g
                 id="g54"
                 transform="matrix(0.48348771,-0.17597513,-0.16699686,-0.45882012,7.1298562,44.638858)">
                <path
                   style="fill:#000000;fill-opacity:0;stroke:#0000ff;stroke-width:1;stroke-dasharray:none;stroke-opacity:1"
                   d="m 13.618282,19.776869 c 3.382886,-6.67903 3.382886,-6.67903 3.382886,-6.67903"
                   id="path53" />
                <path
                   style="fill:#000000;fill-opacity:0;stroke:#0000ff;stroke-width:1;stroke-dasharray:none;stroke-opacity:1"
                   d="m 20.037091,19.776951 c -3.382886,-6.67903 -3.382886,-6.67903 -3.382886,-6.67903"
                   id="path54" />
              </g>
            </g>
          </g>
        </g>
        <path
           style="fill:#000000;fill-opacity:0;stroke:#000000;stroke-width:0.6;stroke-dasharray:none;stroke-opacity:1"
           d="m 224.41922,76.153225 c 0.0289,0.08674 0.0616,0.172307 0.0867,0.260223 0.0469,0.163959 0,0.940138 0,1.170998 0,0.09052 -0.0216,0.217064 0,0.303593 0.008,0.03136 0.0332,0.05608 0.0434,0.08674 0.0294,0.0884 -0.0153,0.21155 0,0.3036 0.0479,0.28765 0.0434,0.0389 0.0434,0.17348"
           id="path71" />
        <path
           style="fill:#000000;fill-opacity:0;stroke:#000000;stroke-width:0.600001;stroke-dasharray:none;stroke-opacity:1"
           d="m 224.54709,129.53931 0.0307,1.77872"
           id="path72" />
        <path
           style="fill:#000000;fill-opacity:0;stroke:#000000;stroke-width:0.600001;stroke-dasharray:none;stroke-opacity:1"
           d="m 250.95176,129.26331 0.12267,2.33072"
           id="path73" />
      </g>
    </g>
    <rect
       style="fill:#ffffff;stroke:#000000;stroke-width:0.88;stroke-miterlimit:4;stroke-dasharray:none"
       id="rect77"
       width="26.458336"
       height="26.458334"
       x="58.795227"
       y="106.22247" />
    <rect
       style="fill:#ffffff;stroke:#000000;stroke-width:0.88;stroke-miterlimit:4;stroke-dasharray:none"
       id="rect78"
       width="26.458336"
       height="26.458334"
       x="58.795231"
       y="159.13913" />
    <path
       style="fill:none;stroke:#000000;stroke-width:0.66;stroke-miterlimit:4;stroke-dasharray:none"
       d="m 85.253566,119.45164 c 13.229166,0 7.211881,12.76747 7.211881,12.76747 0,0 -6.993365,12.71987 -21.74354,13.5551 -9.011327,0.51026 -15.895425,9.39618 -18.541258,13.36493"
       id="path78"
       sodipodi:nodetypes="ccsc" />
    <path
       style="fill:none;stroke:#000000;stroke-width:0.66;stroke-miterlimit:4;stroke-dasharray:none"
       d="m 52.18065,172.3683 v 0"
       id="path79" />
    <path
       style="fill:none;stroke:#000000;stroke-width:0.66;stroke-miterlimit:4;stroke-dasharray:none"
       d="m 58.795232,119.45164 c 0,0 -3.017345,-0.32459 -6.28425,0.38357 -3.024452,0.6556 -5.752336,1.8803 -9.301039,4.7307 -5.141442,4.12972 -11.743465,21.34406 -16.770776,21.34406 l -7.33143,0"
       id="path80"
       sodipodi:nodetypes="csssc" />
    <path
       style="fill:none;stroke:#000000;stroke-width:0.66;stroke-miterlimit:4;stroke-dasharray:none"
       d="m 58.795232,172.3683 c -13.22917,0 -6.61459,-13.22916 -6.61459,-13.22916 0,0 3.145853,-4.44377 7.748623,-8.85372 2.350316,-2.25186 4.357163,-3.19299 5.946281,-3.66857 2.759744,-0.82591 4.580252,-0.46007 8.048637,-1.0328 6.037714,-0.997 16.621047,-7.61158 17.943964,-12.90325"
       id="path81"
       sodipodi:nodetypes="ccsssc" />
    <g
       id="g81"
       transform="matrix(0,-0.51451687,-0.48826617,0,32.141002,154.5422)" />
    <g
       id="g84"
       transform="matrix(0.94067357,-0.34237718,0.34198658,0.93960042,22.794393,104.50646)">
      <g
         id="g83"
         transform="matrix(0,-0.51451687,-0.48826617,0,25.157103,33.249146)">
        <path
           style="fill:#000000;fill-opacity:0;stroke:#000000;stroke-width:1;stroke-dasharray:none;stroke-opacity:1"
           d="m 13.618282,19.776869 c 3.382886,-6.67903 3.382886,-6.67903 3.382886,-6.67903"
           id="path82" />
        <path
           style="fill:#000000;fill-opacity:0;stroke:#000000;stroke-width:1;stroke-dasharray:none;stroke-opacity:1"
           d="m 20.037091,19.776951 c -3.382886,-6.67903 -3.382886,-6.67903 -3.382886,-6.67903"
           id="path83" />
      </g>
    </g>
    <g
       id="g85"
       transform="matrix(-0.43758843,-0.27063625,0.25682836,-0.41526262,95.511509,143.60851)">
      <path
         style="fill:#000000;fill-opacity:0;stroke:#000000;stroke-width:1;stroke-dasharray:none;stroke-opacity:1"
         d="m 13.618282,19.776869 c 3.382886,-6.67903 3.382886,-6.67903 3.382886,-6.67903"
         id="path84" />
      <path
         style="fill:#000000;fill-opacity:0;stroke:#000000;stroke-width:1;stroke-dasharray:none;stroke-opacity:1"
         d="m 20.037091,19.776951 c -3.382886,-6.67903 -3.382886,-6.67903 -3.382886,-6.67903"
         id="path85" />
    </g>
    <g
       id="g88"
       transform="rotate(48.201688,-106.96245,140.96646)">
      <g
         id="g87"
         transform="matrix(0.48348771,-0.17597513,-0.16699686,-0.45882012,7.1298562,44.638858)">
        <path
           style="fill:#000000;fill-opacity:0;stroke:#000000;stroke-width:1;stroke-dasharray:none;stroke-opacity:1"
           d="m 13.618282,19.776869 c 3.382886,-6.67903 3.382886,-6.67903 3.382886,-6.67903"
           id="path86" />
        <path
           style="fill:#000000;fill-opacity:0;stroke:#000000;stroke-width:1;stroke-dasharray:none;stroke-opacity:1"
           d="m 20.037091,19.776951 c -3.382886,-6.67903 -3.382886,-6.67903 -3.382886,-6.67903"
           id="path87" />
      </g>
    </g>
    <path
       style="fill:none;stroke:#000000;stroke-width:0.66;stroke-miterlimit:4;stroke-dasharray:none"
       d="m 85.594144,172.41836 c 0,0 3.01735,0.32459 6.28425,-0.38357 3.02446,-0.6556 5.75234,-1.8803 9.301036,-4.7307 5.14145,-4.12972 11.74347,-21.34406 16.77078,-21.34406 h 7.33142"
       id="path88"
       sodipodi:nodetypes="csssc" />
    <g
       id="g89"
       transform="matrix(0,0.51451687,-0.48826617,0,128.30002,137.3278)" />
    <g
       id="g91"
       transform="matrix(0.95721316,-0.29297076,0.29263652,0.95612114,73.993414,150.90437)">
      <g
         id="g90"
         transform="matrix(-0.02350813,-0.51397832,-0.4877551,0.02235973,23.823433,33.493436)">
        <path
           style="fill:#000000;fill-opacity:0;stroke:#000000;stroke-width:1;stroke-dasharray:none;stroke-opacity:1"
           d="m 13.618282,19.776869 c 3.382886,-6.67903 3.382886,-6.67903 3.382886,-6.67903"
           id="path89" />
        <path
           style="fill:#000000;fill-opacity:0;stroke:#000000;stroke-width:1;stroke-dasharray:none;stroke-opacity:1"
           d="m 20.037091,19.776951 c -3.382886,-6.67903 -3.382886,-6.67903 -3.382886,-6.67903"
           id="path90" />
      </g>
    </g>
    <g
       id="g112"
       transform="translate(-123.65008,51.084081)">
      <g
         id="g92"
         transform="translate(71.14849,-21.835226)" />
      <g
         id="g111"
         transform="translate(-42.198415,-8.8322263)">
        <g
           id="g96"
           transform="matrix(0.95721316,-0.29297077,0.29263652,0.95612114,297.61904,86.857154)">
          <g
             id="g95"
             transform="matrix(-0.02350813,-0.51397832,-0.4877551,0.02235973,-30.739997,13.529267)">
            <g
               id="g94"
               transform="matrix(-0.77407628,0.66636825,0.60147811,0.77407628,64.017556,-24.045904)">
              <path
                 style="fill:none;stroke:#0000ff;stroke-width:0.66;stroke-miterlimit:4;stroke-dasharray:none;stroke-opacity:1"
                 d="m 64.512556,40.536723 c 0,0 -3.01735,-0.32459 -6.28425,0.38357 -3.02446,0.6556 -5.75234,1.8803 -9.30104,4.7307 -5.14145,4.12972 -11.74347,21.34406 -16.77078,21.34406 h -7.331419"
                 id="path92"
                 sodipodi:nodetypes="csssc"
                 transform="matrix(0.65329439,1.9269098,1.8306872,-0.68763213,-96.170727,-58.388703)" />
              <path
                 style="fill:#000000;fill-opacity:0;stroke:#0000ff;stroke-width:1;stroke-dasharray:none;stroke-opacity:1"
                 d="m 13.618282,19.776869 c 3.382886,-6.67903 3.382886,-6.67903 3.382886,-6.67903"
                 id="path93" />
              <path
                 style="fill:#000000;fill-opacity:0;stroke:#0000ff;stroke-width:1;stroke-dasharray:none;stroke-opacity:1"
                 d="m 20.037091,19.776951 c -3.382886,-6.67903 -3.382886,-6.67903 -3.382886,-6.67903"
                 id="path94" />
            </g>
          </g>
        </g>
        <g
           id="g109"
           transform="translate(71.14849,-21.835225)">
          <g
             id="g108"
             transform="translate(-23.959972,7.0060111)">
            <rect
               style="fill:#ffffff;stroke:#000000;stroke-width:0.88;stroke-miterlimit:4;stroke-dasharray:none"
               id="rect96"
               width="26.458336"
               height="26.458334"
               x="177.35977"
               y="-158.31844"
               transform="scale(1,-1)" />
            <rect
               style="fill:#ffffff;stroke:#000000;stroke-width:0.88;stroke-miterlimit:4;stroke-dasharray:none"
               id="rect97"
               width="26.458336"
               height="26.458334"
               x="177.35977"
               y="-105.40179"
               transform="scale(1,-1)" />
            <path
               style="fill:none;stroke:#0000ff;stroke-width:0.66;stroke-miterlimit:4;stroke-dasharray:none;stroke-opacity:1"
               d="m 203.81812,145.08928 c 13.22916,0 7.21188,-12.76748 7.21188,-12.76748 0,0 -6.99337,-12.71987 -21.74354,-13.55509 -9.01133,-0.51027 -15.89543,-9.39618 -18.54126,-13.36493"
               id="path97"
               sodipodi:nodetypes="ccsc" />
            <path
               style="fill:none;stroke:#000000;stroke-width:0.66;stroke-miterlimit:4;stroke-dasharray:none"
               d="m 170.7452,92.172612 v 0"
               id="path98" />
            <path
               style="fill:none;stroke:#0000ff;stroke-width:0.66;stroke-miterlimit:4;stroke-dasharray:none;stroke-opacity:1"
               d="m 177.35978,145.08928 c 0,0 -3.01734,0.32458 -6.28425,-0.38357 -3.02445,-0.6556 -5.75234,-1.8803 -9.30104,-4.7307 -1.85172,-1.48734 -3.89289,-4.67192 -5.98172,-8.13826 -3.71097,-6.15824 -7.57235,-13.20581 -10.78905,-13.20581 h -7.33143"
               id="path99"
               sodipodi:nodetypes="cssssc" />
            <path
               style="fill:none;stroke:#0000ff;stroke-width:0.66;stroke-miterlimit:4;stroke-dasharray:none;stroke-opacity:1"
               d="m 177.35978,92.172612 c -13.22917,0 -6.61459,13.229168 -6.61459,13.229168 0,0 3.14585,4.44377 7.74862,8.85372 2.35032,2.25185 4.35717,3.19298 5.94629,3.66856 2.75974,0.82592 4.58025,0.46008 8.04863,1.03281 6.03772,0.99699 16.62105,7.61158 17.94397,12.90324"
               id="path100"
               sodipodi:nodetypes="ccsssc" />
            <g
               id="g100"
               transform="matrix(0,0.51451687,-0.48826617,0,150.70555,109.99872)" />
            <g
               id="g103"
               transform="matrix(0.94067357,0.34237718,0.34198658,-0.93960042,141.35894,160.03445)">
              <g
                 id="g102"
                 transform="matrix(0,-0.51451687,-0.48826617,0,25.157103,33.249146)">
                <path
                   style="fill:#000000;fill-opacity:0;stroke:#0000ff;stroke-width:1;stroke-dasharray:none;stroke-opacity:1"
                   d="m 13.618282,19.776869 c 3.382886,-6.67903 3.382886,-6.67903 3.382886,-6.67903"
                   id="path101" />
                <path
                   style="fill:#000000;fill-opacity:0;stroke:#0000fb;stroke-width:1;stroke-dasharray:none;stroke-opacity:1"
                   d="m 20.037091,19.776951 c -3.382886,-6.67903 -3.382886,-6.67903 -3.382886,-6.67903"
                   id="path102" />
              </g>
            </g>
            <g
               id="g104"
               transform="matrix(-0.43758843,0.27063625,0.25682836,0.41526262,214.07606,120.9324)">
              <path
                 style="fill:#000000;fill-opacity:0;stroke:#0000ff;stroke-width:1;stroke-dasharray:none;stroke-opacity:1"
                 d="m 13.618282,19.776869 c 3.382886,-6.67903 3.382886,-6.67903 3.382886,-6.67903"
                 id="path103" />
              <path
                 style="fill:#000000;fill-opacity:0;stroke:#0000fe;stroke-width:1;stroke-dasharray:none;stroke-opacity:1"
                 d="m 20.037091,19.776951 c -3.382886,-6.67903 -3.382886,-6.67903 -3.382886,-6.67903"
                 id="path104" />
            </g>
            <g
               id="g107"
               transform="matrix(0.66651051,-0.74549564,-0.74549564,-0.66651051,187.98357,137.79004)">
              <g
                 id="g106"
                 transform="matrix(0.48348771,-0.17597513,-0.16699686,-0.45882012,7.1298562,44.638858)">
                <path
                   style="fill:#000000;fill-opacity:0;stroke:#0000ff;stroke-width:1;stroke-dasharray:none;stroke-opacity:1"
                   d="m 13.618282,19.776869 c 3.382886,-6.67903 3.382886,-6.67903 3.382886,-6.67903"
                   id="path105" />
                <path
                   style="fill:#000000;fill-opacity:0;stroke:#0000ff;stroke-width:1;stroke-dasharray:none;stroke-opacity:1"
                   d="m 20.037091,19.776951 c -3.382886,-6.67903 -3.382886,-6.67903 -3.382886,-6.67903"
                   id="path106" />
              </g>
            </g>
          </g>
        </g>
        <path
           style="fill:#000000;fill-opacity:0;stroke:#000000;stroke-width:0.6;stroke-dasharray:none;stroke-opacity:1"
           d="m 224.41922,76.153225 c 0.0289,0.08674 0.0616,0.172307 0.0867,0.260223 0.0469,0.163959 0,0.940138 0,1.170998 0,0.09052 -0.0216,0.217064 0,0.303593 0.008,0.03136 0.0332,0.05608 0.0434,0.08674 0.0294,0.0884 -0.0153,0.21155 0,0.3036 0.0479,0.28765 0.0434,0.0389 0.0434,0.17348"
           id="path109" />
        <path
           style="fill:#000000;fill-opacity:0;stroke:#000000;stroke-width:0.600001;stroke-dasharray:none;stroke-opacity:1"
           d="m 224.54709,129.53931 0.0307,1.77872"
           id="path110" />
        <path
           style="fill:#000000;fill-opacity:0;stroke:#000000;stroke-width:0.600001;stroke-dasharray:none;stroke-opacity:1"
           d="m 250.95176,129.26331 0.12267,2.33072"
           id="path111" />
      </g>
    </g>
  </g>
</svg>
